Coordinates
version=1
nRows=17
nColumns=36
inDegrees=yes

Units are S.I. units (second, meters, Newtons, ...)
If the header above contains a line with 'inDegrees', this indicates whether rotational values are in degrees (yes) or radians (no).

endheader
time	pelvis_tilt	pelvis_list	pelvis_rotation	pelvis_tx	pelvis_ty	pelvis_tz	hip_flexion_r	hip_adduction_r	hip_rotation_r	knee_angle_r	knee_angle_r_beta	ankle_angle_r	subtalar_angle_r	mtp_angle_r	hip_flexion_l	hip_adduction_l	hip_rotation_l	knee_angle_l	knee_angle_l_beta	ankle_angle_l	subtalar_angle_l	mtp_angle_l	lumbar_extension	lumbar_bending	lumbar_rotation	arm_flex_r	arm_add_r	arm_rot_r	elbow_flex_r	pro_sup_r	arm_flex_l	arm_add_l	arm_rot_l	elbow_flex_l	pro_sup_l
      0.00000000	    -11.04636483	     -2.10735399	     -5.57350998	      1.55256762	      0.90984903	      0.06392221	      6.76568336	     -0.55604010	      1.95737205	      0.51321757	      0.00895734	     -1.00366039	    -12.24057008	     -6.44736518	      8.09880088	     -6.60727939	      3.20980492	      0.70913979	      0.01237682	      4.44936243	     -9.36266787	     -6.44736518	     11.03509230	      2.88317665	     -3.47852772	     33.00908910	      3.65804499	     47.09645987	    110.17660348	     77.11701452	     48.76099137	     10.94538253	     75.28564968	    116.42555140	     74.43059314
      0.01666670	     -9.75559450	     -1.39923664	     -6.80502768	      1.55018495	      0.90698870	      0.06449807	      5.84802890	     -1.53863271	      2.48748275	      0.47265411	      0.00824937	      0.07654026	    -12.08723083	     -6.85198044	      6.46946267	     -5.87149825	      2.75427269	      0.49997460	      0.00872620	      4.57128181	     -9.82282865	     -6.85198044	      8.38135865	      2.57812498	     -1.34582931	     37.27320006	      0.03284012	     56.46308503	    117.62121348	     90.35711849	     52.09073828	     10.48975260	     73.41929390	    120.62849140	     93.04320062
      0.03333330	     -7.91235394	     -1.59901976	     -7.18653307	      1.54812549	      0.90835512	      0.06425533	      4.16611883	     -1.51089254	      2.62281455	      0.68114597	      0.01188824	      0.97209837	    -12.25342047	     -7.07514746	      4.41428861	     -5.79816616	      1.94333721	      0.54827963	      0.00956928	      4.57930688	    -10.19080210	     -7.07514746	      5.60625628	      2.70610693	     -1.67009302	     38.75126186	      1.30672518	     57.29892375	    118.88792871	     96.58242128	     53.95823274	      9.88160725	     72.06740605	    121.59036827	    100.62910500
      0.05000000	     -6.23108987	     -1.76343396	     -7.04967547	      1.54595014	      0.91237440	      0.06319346	      2.56343887	     -1.63120875	      2.07223149	      0.81683514	      0.01425646	      1.72041443	    -11.94508585	     -7.08398618	      2.72608225	     -5.70536841	      1.32366644	      0.62091014	      0.01083693	      4.51111506	    -10.22702672	     -7.08398618	      2.95749052	      2.48468311	     -1.86462724	     39.93561151	      2.17859183	     57.96018101	    119.29317010	     97.27264821	     55.59214462	      9.65547200	     71.88984911	    121.72577874	    101.22168287
      0.06666670	     -5.06609189	     -1.75718657	     -7.07110534	      1.54414071	      0.91370397	      0.06291610	      1.51703590	     -1.81821012	      1.88961259	      1.00793807	      0.01759184	      2.58100506	    -11.62961166	     -7.43175464	      1.53335629	     -5.53712702	      1.00188572	      0.66105014	      0.01153750	      4.50388514	    -10.05565076	     -7.43175464	      1.04728418	      2.29751906	     -1.97123727	     40.71801424	      2.91206070	     58.41132798	    119.17422204	     99.81437583	     56.65222433	      9.44261439	     71.60394794	    121.93812994	    102.06778704
      0.08333330	     -4.28079994	     -1.76059417	     -7.05852043	      1.54682013	      0.91748435	      0.06654819	      0.75846571	     -1.91539251	      1.83771733	      1.19300023	      0.02082178	      2.99238082	    -11.70234829	     -7.43312049	      0.67322403	     -5.52697698	      1.05547233	      0.68527411	      0.01196029	      4.35500734	    -10.10710582	     -7.43312049	     -0.18760275	      2.03329310	     -1.78176690	     40.85044294	      3.75322792	     58.92147822	    118.70571490	     99.88037711	     57.27563103	      9.27862876	     71.86767121	    121.99504218	    102.01080554
      0.10000000	     -4.01469447	     -1.58797867	     -6.95520700	      1.54165210	      0.91468500	      0.06283301	      0.63139818	     -2.17242303	      1.73671633	      1.40898307	      0.02459139	      3.21798093	    -11.81580702	     -7.43376385	      0.46754423	     -5.34551663	      1.11376534	      0.72112217	      0.01258596	      4.22093671	    -10.02894696	     -7.43376385	     -0.77993154	      1.76065304	     -1.92537558	     41.13640584	      4.36824621	     59.24371716	    118.83378895	     99.90775177	     58.13539769	      9.21272982	     71.39277384	    121.78234756	    101.92003426
      0.11666670	     -3.42800665	     -1.55064013	     -6.80869832	      1.54099568	      0.91788634	      0.06306664	      0.02743048	     -2.30862835	      1.58478943	      1.49123291	      0.02602692	      3.38350000	    -11.87006601	     -7.46509615	     -0.12378301	     -5.28381921	      1.25146790	      0.73605717	      0.01284662	      4.12784673	     -9.94109624	     -7.46509615	     -1.83282565	      1.65097470	     -1.94288576	     41.71670720	      4.68313375	     59.90350950	    119.06199375	     99.36420663	     58.65079241	      9.01134655	     71.44040473	    121.67274046	    100.42428259
      0.13333330	     -3.20718475	     -1.45425419	     -6.76103853	      1.54002926	      0.91300662	      0.06329302	     -0.15280856	     -2.44688976	      1.57945418	      1.57745914	      0.02753186	      3.36326371	    -12.17759035	     -7.47066849	     -0.31126668	     -5.19116517	      1.32113446	      0.76290569	      0.01331522	      4.01014880	     -9.97215524	     -7.47066849	     -2.29973011	      1.43758853	     -1.86778222	     42.22679073	      5.13797191	     59.38861354	    119.23180550	     98.39595792	     59.53617477	      9.19550726	     71.25099226	    121.49066552	     99.01411249
      0.15000000	     -3.01121867	     -1.39289823	     -6.70852134	      1.53950557	      0.91350641	      0.06328254	     -0.33118556	     -2.52308461	      1.52810226	      1.68209309	      0.02935806	      3.34939868	    -12.37252840	     -7.48863663	     -0.44108590	     -5.12974837	      1.37833412	      0.80131986	      0.01398567	      3.93429642	     -9.89071260	     -7.48863663	     -2.78085674	      1.28447761	     -1.69808094	     42.74390768	      5.41638126	     59.17395362	    119.30247616	     98.57469148	     60.24208771	      9.27810384	     71.29285422	    121.44009013	     98.49147571
      0.16666670	     -2.88692169	     -1.36501395	     -6.63269644	      1.53903071	      0.91370083	      0.06337837	     -0.44038330	     -2.53584290	      1.53651401	      1.77780055	      0.03102847	      3.27013010	    -12.70296242	     -7.49566222	     -0.49677374	     -5.11181560	      1.50277890	      0.82967898	      0.01448063	      3.86057611	    -10.02074708	     -7.49566222	     -3.14676558	      1.17142102	     -1.51740259	     43.01286747	      5.52552631	     59.00790226	    119.44606020	     97.80029722	     60.84214885	      9.36487006	     71.49651740	    121.37497743	     97.53421995
      0.18333330	     -2.71783717	     -1.34946829	     -6.51026083	      1.53891325	      0.91415347	      0.06386852	     -0.62468566	     -2.54994855	      1.32284391	      1.85169303	      0.03231814	      3.42406145	    -12.60854813	     -7.49748223	     -0.59107147	     -5.09026206	      1.55792569	      0.87032356	      0.01519001	      3.76623242	     -9.96949789	     -7.49748223	     -3.51101006	      1.09156035	     -1.45786042	     43.28827203	      5.71376571	     58.71021679	    118.99462339	     97.98740381	     61.23725618	      9.40531628	     71.69450085	    121.43247245	     97.69279004
      0.20000000	     -2.60988074	     -1.32712289	     -6.45767961	      1.53859934	      0.91701060	      0.06354140	     -0.71534462	     -2.56864887	      1.28738761	      1.93048747	      0.03369336	      3.42723366	    -12.77310259	     -7.49920153	     -0.63869091	     -5.06744516	      1.55449377	      0.92027231	      0.01606178	      3.69780933	     -9.92135520	     -7.49920153	     -3.79955325	      1.00643739	     -1.39861482	     43.10960704	      5.85905455	     58.55838837	    118.52843664	     98.12390395	     61.28917953	      9.31818317	     72.09332144	    121.42965837	     97.43160212
      0.21666670	     -2.54658662	     -1.30155749	     -6.43603818	      1.53857337	      0.91739193	      0.06352513	     -0.77030528	     -2.59136849	      1.26305759	      2.01400740	      0.03515106	      3.46741429	    -12.85574949	     -7.49971362	     -0.65843008	     -5.03397062	      1.58111316	      0.98349043	      0.01716515	      3.56341479	     -9.92255191	     -7.49971362	     -3.97508568	      0.91985264	     -1.33948636	     42.85929269	      5.99489553	     58.26739161	    118.27275781	     98.28245943	     61.28645397	      9.29502381	     72.33956140	    121.37572444	     97.33512355
      0.23333330	     -2.47555814	     -1.28429376	     -6.37122473	      1.53840275	      0.91738170	      0.06352563	     -0.85026744	     -2.60191201	      1.16832292	      2.06385034	      0.03602098	      3.53840095	    -12.88721536	     -7.49986797	     -0.67725841	     -5.00358642	      1.72405390	      1.06318134	      0.01855601	      3.48396990	    -10.00284121	     -7.49986797	     -4.17037039	      0.87730511	     -1.34169589	     42.85250095	      6.15465132	     58.23833741	    118.55724170	     98.10453430	     61.29794356	      9.33567626	     72.33177494	    120.97195304	     97.16604753
      0.25000000	     -2.40906843	     -1.24745557	     -6.33326784	      1.53850656	      0.92033668	      0.06306426	     -0.91828198	     -2.64057613	      1.15533726	      2.12613779	      0.03710810	      3.64685739	    -12.89504157	     -7.49994246	     -0.69894290	     -4.95573304	      1.75188311	      1.14750182	      0.02002768	      3.42782379	     -9.93071354	     -7.49994246	     -4.34288035	      0.79290866	     -1.19486799	     42.75508131	      6.08620157	     58.38246857	    118.87177471	     98.24030971	     61.16945610	      9.41344243	     72.72271636	    120.87138291	     97.13780723
      0.26666670	     -2.37847113	     -1.22011078	     -6.25441687	      1.53843726	      0.92018265	      0.06314756	     -0.96495116	     -2.66246008	      1.12208816	      2.15633617	      0.03763517	      3.74610118	    -12.91371992	     -7.49997968	     -0.69470252	     -4.91791247	      1.83004593	      1.20255308	      0.02098851	      3.45786624	     -9.82883285	     -7.49997968	     -4.41208747	      0.71892791	     -1.23565997	     42.58301547	      6.34758898	     58.07842616	    118.51518963	     98.58465843	     61.16776182	      9.45179221	     72.95976615	    120.88718856	     97.23078157
